<svg width="132" height="139" viewBox="0 0 132 139" fill="none" xmlns="http://www.w3.org/2000/svg">
<path d="M125.398 56.9013L130.398 48.2013C131.898 45.7013 130.898 42.4013 128.198 41.2013C116.498 35.8013 103.298 34.7013 90.6983 38.1013C85.6983 39.4013 80.9983 41.4013 76.6983 44.0013C73.3983 45.9013 69.3984 43.1013 70.0984 39.4013C71.6984 31.0013 76.3984 23.2013 83.5984 17.7013C85.5984 16.2013 86.2983 13.4013 84.9983 11.2013L79.9983 2.50133C78.4983 0.00133371 75.1983 -0.798672 72.7983 0.901328C57.6983 11.7013 49.2983 29.1013 49.4983 46.9013C49.4983 50.7013 45.0983 52.9013 42.1983 50.4013C35.6983 44.8013 31.2984 36.8013 30.0984 27.9013C29.7984 25.4013 27.6984 23.4013 25.0984 23.4013H14.9983C12.0983 23.4013 9.69826 25.9013 9.99826 28.8013C11.7983 47.3013 22.6983 63.2013 38.1983 72.0013C41.5983 73.9013 41.0983 78.8013 37.4983 80.1013C36.6983 80.4013 35.8984 80.6013 35.0984 80.8013C27.2984 82.9013 19.2983 82.3013 11.9983 79.2013C9.69826 78.2013 6.89834 79.1013 5.69834 81.3013L0.698335 90.0013C-0.801665 92.5013 0.198286 95.8013 2.89829 97.0013C10.1983 100.301 17.9983 102.001 25.8983 102.001C30.6983 102.001 35.5983 101.401 40.3983 100.101C45.3983 98.8013 50.0983 96.8013 54.3983 94.2013C57.6983 92.3013 61.6983 95.1013 60.9983 98.8013C59.3983 107.201 54.6983 115.001 47.4983 120.501C45.4983 122.001 44.7984 124.801 46.0984 127.001L51.0984 135.701C52.5984 138.201 55.8983 139.001 58.2983 137.301C73.3983 126.501 81.7984 109.101 81.5984 91.3013C81.5984 87.5013 85.9983 85.3013 88.8983 87.8013C95.3983 93.4013 99.7983 101.401 100.998 110.301C101.298 112.801 103.398 114.801 105.998 114.801H116.098C118.998 114.801 121.398 112.301 121.098 109.401C119.298 90.9013 108.398 75.0013 92.8983 66.2013C89.4983 64.3013 89.9984 59.4013 93.5984 58.1013C94.3984 57.8013 95.1983 57.6013 95.9983 57.4013C103.798 55.3013 111.798 55.9013 119.098 59.0013C121.398 60.0013 124.098 59.1013 125.398 56.9013Z" fill="#fff"/>
</svg>
